<svg xmlns="http://www.w3.org/2000/svg" width="548" height="282" fill="none"><path stroke="url(#a)" d="M273.805 63.003c-3.322 11.58-33.83 43.805-95.783 64.046-83.494 27.278-83.602 72.404-82.494 93.954"/><path stroke="url(#b)" stroke-opacity=".5" d="M273.75 63c-2.7 11.559-27.493 43.721-77.841 63.924-67.856 27.226-67.943 72.265-67.043 93.774"/><path stroke="url(#c)" d="M195.906 126.924c-67.855 27.226-67.942 72.265-67.042 93.774"/><path stroke="url(#d)" stroke-opacity=".2" d="M273.75 63c-3.029 11.559-30.851 43.721-87.349 63.924-76.143 27.226-76.241 72.265-75.231 93.774"/><path stroke="url(#e)" d="M186.401 126.932a244 244 0 0 0 22.994-9.544"/><path stroke="url(#f)" d="M273.75 63c-2.391 11.559-24.345 43.721-68.928 63.924-60.086 27.226-60.163 72.265-59.366 93.774"/><g filter="url(#g)"><path stroke="url(#h)" stroke-width="13" d="M273.75 63c-2.391 11.559-24.345 43.721-68.928 63.924-60.086 27.226-60.163 72.265-59.366 93.774"/></g><path stroke="url(#i)" stroke-opacity=".2" d="M273.75 63c-3.668 11.559-37.356 43.721-105.769 63.924-92.2 27.226-92.32 72.265-91.096 93.774"/><path stroke="url(#j)" d="M76.883 220.698c-.607-10.685-.884-27.178 10.297-44.409"/><g filter="url(#k)"><path stroke="url(#l)" stroke-opacity=".6" stroke-width="13" d="M273.75 63c-3.854 11.559-39.245 43.721-111.117 63.924-96.862 27.226-96.987 72.265-95.702 93.774"/></g><path fill="#B268F8" d="M174.554 193.418c-.051-1.906.968-3.506 2.803-4.402l.736-.359-.984-.049c-2.451-.122-5.019-1.074-7.061-2.62.051 1.905-.968 3.505-2.803 4.401l-.736.359.984.049c2.451.122 5.019 1.075 7.061 2.621"/><path fill="#B268F8" d="M206.804 95.06c1.334-1.045 3.022-1.695 4.644-1.79l.669-.038-.508-.242c-1.229-.584-1.93-1.645-1.927-2.918-1.335 1.044-3.023 1.694-4.644 1.789l-.669.039.507.241c1.23.585 1.93 1.645 1.928 2.918" opacity=".6"/><path fill="#B268F8" d="M216.111 168.648c-.035-1.27.644-2.337 1.867-2.934l.491-.24-.656-.032c-1.635-.081-3.347-.716-4.709-1.746.035 1.27-.644 2.337-1.867 2.935l-.49.239.655.032c1.635.081 3.347.716 4.709 1.746" opacity=".3"/><path fill="#B268F8" d="M84.223 146.456c2.184-1.896 5.008-3.113 7.774-3.349l1.234-.105-.975-.426c-2.186-.955-3.53-2.776-3.7-5.014-2.183 1.896-5.006 3.113-7.772 3.349l-1.234.106.975.426c2.185.955 3.529 2.776 3.698 5.013" opacity=".13"/><path fill="#B268F8" d="M40.919 214.531c1.22-1.095 2.81-1.803 4.378-1.95l.715-.067-.572-.244c-1.255-.534-2.044-1.568-2.172-2.847-1.22 1.095-2.81 1.803-4.379 1.95l-.714.067.572.244c1.255.534 2.044 1.568 2.172 2.847"/><path stroke="url(#m)" d="M273.805 63.003c3.322 11.58 33.829 43.805 95.782 64.046 83.495 27.278 83.602 72.404 82.495 93.954"/><path stroke="url(#n)" stroke-opacity=".5" d="M273.859 63c2.7 11.559 27.493 43.721 77.842 63.924 67.855 27.226 67.942 72.265 67.043 93.774"/><path stroke="url(#o)" d="M351.703 126.924c67.855 27.226 67.943 72.265 67.043 93.774"/><path stroke="url(#p)" stroke-opacity=".2" d="M273.859 63c3.03 11.559 30.851 43.721 87.349 63.924 76.143 27.226 76.241 72.265 75.231 93.774"/><path stroke="url(#q)" d="M361.208 126.932a244 244 0 0 1-22.993-9.544"/><path stroke="url(#r)" d="M273.859 63c2.391 11.559 24.345 43.721 68.929 63.924 60.085 27.226 60.163 72.265 59.366 93.774"/><g filter="url(#s)"><path stroke="url(#t)" stroke-width="13" d="M273.859 63c2.391 11.559 24.345 43.721 68.929 63.924 60.085 27.226 60.163 72.265 59.366 93.774"/></g><path stroke="url(#u)" stroke-opacity=".2" d="M273.859 63c3.669 11.559 37.357 43.721 105.77 63.924 92.2 27.226 92.319 72.265 91.096 93.774"/><path stroke="url(#v)" d="M470.726 220.698c.608-10.685.884-27.178-10.296-44.409"/><g filter="url(#w)"><path stroke="url(#x)" stroke-opacity=".6" stroke-width="13" d="M273.859 63c3.854 11.559 39.246 43.721 111.118 63.924 96.861 27.226 96.986 72.265 95.702 93.774"/></g><path fill="#34D39E" d="M373.055 193.418c.051-1.906-.968-3.506-2.803-4.402l-.736-.359.984-.049c2.452-.122 5.019-1.074 7.061-2.62-.051 1.905.968 3.505 2.803 4.401l.737.359-.984.049c-2.452.122-5.019 1.075-7.062 2.621"/><path fill="#34D39E" d="M340.806 95.06c-1.335-1.045-3.023-1.695-4.644-1.79l-.669-.038.507-.242c1.229-.584 1.93-1.645 1.927-2.918 1.335 1.044 3.023 1.694 4.645 1.789l.668.039-.507.241c-1.229.585-1.93 1.645-1.927 2.918" opacity=".6"/><path fill="#34D39E" d="M331.498 168.648c.035-1.27-.644-2.337-1.867-2.934l-.49-.24.655-.032c1.635-.081 3.347-.716 4.709-1.746-.035 1.27.644 2.337 1.867 2.935l.491.239-.656.032c-1.635.081-3.347.716-4.709 1.746" opacity=".3"/><path fill="#34D39E" d="M463.386 146.456c-2.184-1.896-5.007-3.113-7.773-3.349l-1.234-.105.975-.426c2.186-.955 3.529-2.776 3.698-5.014 2.184 1.896 5.008 3.113 7.774 3.349l1.234.106-.975.426c-2.186.955-3.53 2.776-3.699 5.013" opacity=".13"/><path fill="#34D39E" d="M506.691 214.531c-1.22-1.095-2.81-1.803-4.379-1.95l-.714-.067.571-.244c1.256-.534 2.044-1.568 2.172-2.847 1.22 1.095 2.81 1.803 4.379 1.95l.715.067-.572.244c-1.256.534-2.044 1.568-2.172 2.847"/><defs><linearGradient id="a" x1="95.471" x2="123.717" y1="220.701" y2="52.769" gradientUnits="userSpaceOnUse"><stop stop-color="#B268F8"/><stop offset="1" stop-color="#B268F8" stop-opacity=".973"/></linearGradient><linearGradient id="b" x1="273.75" x2="202.978" y1="64.209" y2="259.84" gradientUnits="userSpaceOnUse"><stop stop-color="#AD3AFA" stop-opacity="0"/><stop offset=".212" stop-color="#AD3AFA"/><stop offset="1" stop-color="#AD3AFA" stop-opacity="0"/></linearGradient><linearGradient id="c" x1="128.689" x2="132.718" y1="224.021" y2="187.301" gradientUnits="userSpaceOnUse"><stop stop-color="#AD3AFA"/><stop offset="1" stop-color="#AD3AFA" stop-opacity="0"/></linearGradient><linearGradient id="d" x1="111.119" x2="141.807" y1="220.396" y2="53.693" gradientUnits="userSpaceOnUse"><stop stop-color="#B268F8"/><stop offset="1" stop-color="#B268F8" stop-opacity="0"/></linearGradient><linearGradient id="e" x1="209.524" x2="195.777" y1="117.388" y2="134.633" gradientUnits="userSpaceOnUse"><stop stop-color="#AD3AFA"/><stop offset="1" stop-color="#AD3AFA" stop-opacity="0"/></linearGradient><linearGradient id="f" x1="145.415" x2="183.547" y1="220.396" y2="56.94" gradientUnits="userSpaceOnUse"><stop stop-color="#AD3AFA"/><stop offset="1" stop-color="#AD3AFA" stop-opacity="0"/></linearGradient><linearGradient id="h" x1="145.415" x2="183.547" y1="220.396" y2="56.94" gradientUnits="userSpaceOnUse"><stop stop-color="#AD3AFA"/><stop offset="1" stop-color="#AD3AFA" stop-opacity="0"/></linearGradient><linearGradient id="i" x1="76.822" x2="102.433" y1="220.396" y2="51.938" gradientUnits="userSpaceOnUse"><stop stop-color="#B268F8"/><stop offset="1" stop-color="#B268F8" stop-opacity="0"/></linearGradient><linearGradient id="j" x1="92.703" x2="86.75" y1="175.987" y2="210.78" gradientUnits="userSpaceOnUse"><stop stop-color="#AD3AFA"/><stop offset="1" stop-color="#AD3AFA" stop-opacity="0"/></linearGradient><linearGradient id="l" x1="66.865" x2="91.295" y1="220.396" y2="51.579" gradientUnits="userSpaceOnUse"><stop stop-color="#AD3AFA"/><stop offset="1" stop-color="#AD3AFA" stop-opacity="0"/></linearGradient><linearGradient id="m" x1="452.138" x2="423.892" y1="220.701" y2="52.769" gradientUnits="userSpaceOnUse"><stop stop-color="#10B981"/><stop offset="1" stop-color="#10B981" stop-opacity="0"/></linearGradient><linearGradient id="n" x1="273.859" x2="344.632" y1="64.209" y2="259.84" gradientUnits="userSpaceOnUse"><stop stop-color="#10B981" stop-opacity="0"/><stop offset=".212" stop-color="#10B981"/><stop offset="1" stop-color="#10B981" stop-opacity="0"/></linearGradient><linearGradient id="o" x1="418.92" x2="414.891" y1="224.021" y2="187.301" gradientUnits="userSpaceOnUse"><stop stop-color="#10B981"/><stop offset="1" stop-color="#10B981" stop-opacity="0"/></linearGradient><linearGradient id="p" x1="436.491" x2="405.803" y1="220.396" y2="53.693" gradientUnits="userSpaceOnUse"><stop stop-color="#10B981"/><stop offset="1" stop-color="#10B981" stop-opacity="0"/></linearGradient><linearGradient id="q" x1="338.085" x2="351.833" y1="117.388" y2="134.633" gradientUnits="userSpaceOnUse"><stop stop-color="#10B981"/><stop offset="1" stop-color="#10B981" stop-opacity=".725"/></linearGradient><linearGradient id="r" x1="402.194" x2="364.063" y1="220.396" y2="56.94" gradientUnits="userSpaceOnUse"><stop stop-color="#10B981"/><stop offset="1" stop-color="#10B981" stop-opacity="0"/></linearGradient><linearGradient id="t" x1="402.194" x2="364.063" y1="220.396" y2="56.94" gradientUnits="userSpaceOnUse"><stop stop-color="#10B981"/><stop offset="1" stop-color="#10B981" stop-opacity="0"/></linearGradient><linearGradient id="u" x1="470.787" x2="445.177" y1="220.396" y2="51.938" gradientUnits="userSpaceOnUse"><stop stop-color="#10B981"/><stop offset="1" stop-color="#10B981" stop-opacity="0"/></linearGradient><linearGradient id="v" x1="454.906" x2="460.86" y1="175.987" y2="210.78" gradientUnits="userSpaceOnUse"><stop stop-color="#10B981"/><stop offset="1" stop-color="#10B981" stop-opacity="0"/></linearGradient><linearGradient id="x" x1="480.744" x2="456.315" y1="220.396" y2="51.579" gradientUnits="userSpaceOnUse"><stop stop-color="#10B981"/><stop offset="1" stop-color="#10B981" stop-opacity="0"/></linearGradient><filter id="g" width="261.315" height="279.255" x="78.8" y="1.684" color-interpolation-filters="sRGB" filterUnits="userSpaceOnUse"><feFlood flood-opacity="0" result="BackgroundImageFix"/><feBlend in="SourceGraphic" in2="BackgroundImageFix" result="shape"/><feGaussianBlur result="effect1_foregroundBlur_3936_16" stdDeviation="30"/></filter><filter id="k" width="339.734" height="280.141" x=".182" y=".944" color-interpolation-filters="sRGB" filterUnits="userSpaceOnUse"><feFlood flood-opacity="0" result="BackgroundImageFix"/><feBlend in="SourceGraphic" in2="BackgroundImageFix" result="shape"/><feGaussianBlur result="effect1_foregroundBlur_3936_16" stdDeviation="30"/></filter><filter id="s" width="261.315" height="279.255" x="207.494" y="1.684" color-interpolation-filters="sRGB" filterUnits="userSpaceOnUse"><feFlood flood-opacity="0" result="BackgroundImageFix"/><feBlend in="SourceGraphic" in2="BackgroundImageFix" result="shape"/><feGaussianBlur result="effect1_foregroundBlur_3936_16" stdDeviation="30"/></filter><filter id="w" width="339.734" height="280.141" x="207.693" y=".944" color-interpolation-filters="sRGB" filterUnits="userSpaceOnUse"><feFlood flood-opacity="0" result="BackgroundImageFix"/><feBlend in="SourceGraphic" in2="BackgroundImageFix" result="shape"/><feGaussianBlur result="effect1_foregroundBlur_3936_16" stdDeviation="30"/></filter></defs></svg>