<svg xmlns="http://www.w3.org/2000/svg" width="550" height="303" fill="none"><path stroke="url(#a)" d="M273.805 62.5c-3.322 13.193-33.83 49.904-95.783 72.964C94.528 166.541 94.42 217.949 95.528 242.5"/><path stroke="url(#b)" stroke-opacity=".5" d="M273.75 62.5c-2.7 13.168-27.493 49.809-77.841 72.825-67.856 31.017-67.943 82.328-67.043 106.831"/><path stroke="url(#c)" d="M195.906 135.325c-67.855 31.017-67.942 82.328-67.042 106.831"/><path stroke="url(#d)" stroke-opacity=".2" d="M273.75 62.5c-3.029 13.168-30.851 49.809-87.349 72.825-76.143 31.017-76.241 82.328-75.231 106.831"/><path stroke="url(#e)" d="M186.401 135.328a229 229 0 0 0 22.994-10.874"/><path stroke="url(#f)" d="M273.75 62.5c-2.391 13.168-24.345 49.809-68.928 72.825-60.086 31.017-60.163 82.328-59.366 106.831"/><g filter="url(#g)"><path stroke="url(#h)" stroke-width="13" d="M273.75 62.5c-2.391 13.168-24.345 49.809-68.928 72.825-60.086 31.017-60.163 82.328-59.366 106.831"/></g><path stroke="url(#i)" stroke-opacity=".2" d="M273.75 62.5c-3.668 13.168-37.356 49.809-105.769 72.825-92.2 31.017-92.32 82.328-91.096 106.831"/><path stroke="url(#j)" d="M76.883 242.156c-.607-12.173-.884-30.962 10.297-50.592"/><g filter="url(#k)"><path stroke="url(#l)" stroke-opacity=".6" stroke-width="13" d="M273.75 62.5c-3.854 13.168-39.245 49.809-111.117 72.825-96.862 31.017-96.987 82.328-95.702 106.831"/></g><path fill="#FEDF46" d="M174.554 211.074c-.051-2.168 1.046-4.037 3.01-5.129l.529-.295-.707-.04c-2.624-.148-5.299-1.242-7.338-3.001.051 2.168-1.046 4.038-3.01 5.13l-.529.294.708.04c2.623.149 5.298 1.242 7.337 3.001"/><path fill="#FEDF46" d="M206.804 99.024c1.332-1.187 3.093-1.935 4.832-2.05l.481-.032-.365-.197c-1.318-.714-2.073-1.954-2.07-3.402-1.333 1.188-3.094 1.935-4.832 2.05l-.481.032.365.198c1.318.714 2.072 1.953 2.07 3.401" opacity=".6"/><path fill="#FEDF46" d="M216.111 182.853c-.035-1.445.696-2.691 2.005-3.42l.353-.196-.472-.027c-1.749-.098-3.533-.827-4.893-1.999.035 1.445-.696 2.692-2.005 3.42l-.352.196.471.027c1.75.098 3.533.827 4.893 1.999" opacity=".3"/><path fill="#FEDF46" d="M84.223 157.576c2.18-2.157 5.139-3.559 8.12-3.849l.888-.087-.701-.348c-2.357-1.173-3.804-3.303-3.973-5.848-2.18 2.156-5.138 3.559-8.12 3.849l-.887.086.7.349c2.357 1.173 3.804 3.303 3.973 5.848" opacity=".13"/><path fill="#FEDF46" d="M40.919 235.127c1.218-1.246 2.886-2.063 4.58-2.244l.513-.055-.411-.199c-1.355-.657-2.205-1.867-2.333-3.322-1.218 1.245-2.886 2.062-4.58 2.244l-.513.054.41.2c1.356.656 2.206 1.867 2.334 3.322"/><path stroke="url(#m)" d="M290.805 62c3.083 13.193 31.4 49.904 88.906 72.964 77.5 31.077 77.6 82.485 76.573 107.036"/><path stroke="url(#n)" stroke-opacity=".5" d="M290.855 62c2.506 13.168 25.519 49.809 72.254 72.825 62.984 31.017 63.065 82.328 62.23 106.831"/><path stroke="url(#o)" d="M363.109 134.825c62.984 31.017 63.065 82.328 62.23 106.831"/><path stroke="url(#p)" stroke-opacity=".2" d="M290.855 62c2.812 13.168 28.636 49.809 81.079 72.825 70.676 31.017 70.767 82.328 69.83 106.831"/><path stroke="url(#q)" d="M371.932 134.828a206 206 0 0 1-21.342-10.874"/><path stroke="url(#r)" d="M290.855 62c2.219 13.168 22.597 49.809 63.98 72.825 55.772 31.017 55.844 82.328 55.105 106.831"/><g filter="url(#s)"><path stroke="url(#t)" stroke-width="13" d="M290.855 62c2.219 13.168 22.597 49.809 63.98 72.825 55.772 31.017 55.844 82.328 55.105 106.831"/></g><path stroke="url(#u)" stroke-opacity=".2" d="M290.855 62c3.405 13.168 34.675 49.809 98.177 72.825 85.581 31.017 85.691 82.328 84.556 106.831"/><path stroke="url(#v)" d="M473.589 241.656c.563-12.173.82-30.962-9.558-50.592"/><g filter="url(#w)"><path stroke="url(#x)" stroke-opacity=".6" stroke-width="13" d="M290.855 62c3.578 13.168 36.428 49.809 103.141 72.825 89.908 31.017 90.024 82.328 88.831 106.831"/></g><path fill="#18ADF2" d="M382.932 210.574c.047-2.166-1.016-4.064-2.916-5.202l-.369-.222.494-.03c2.537-.154 5.082-1.253 6.974-3.011-.048 2.167 1.016 4.065 2.915 5.203l.37.221-.494.03c-2.538.155-5.082 1.253-6.974 3.011"/><path fill="#18ADF2" d="M352.994 98.524c-1.236-1.187-2.913-1.937-4.596-2.058l-.336-.024.255-.148c1.276-.745 2.008-2.004 2.005-3.45 1.237 1.186 2.913 1.937 4.596 2.057l.336.024-.255.149c-1.276.744-2.007 2.003-2.005 3.45" opacity=".6"/><path fill="#18ADF2" d="M344.357 182.353c.033-1.444-.676-2.71-1.942-3.468l-.246-.148.329-.02c1.692-.103 3.389-.835 4.651-2.006-.033 1.444.676 2.71 1.942 3.469l.246.147-.329.02c-1.692.103-3.389.835-4.651 2.006" opacity=".3"/><path fill="#18ADF2" d="M466.776 157.076c-2.022-2.155-4.846-3.567-7.743-3.871l-.618-.065.489-.262c2.288-1.227 3.692-3.391 3.849-5.934 2.022 2.155 4.846 3.567 7.742 3.87l.619.065-.489.262c-2.289 1.227-3.693 3.392-3.849 5.935" opacity=".13"/><path fill="#18ADF2" d="M506.972 234.627a7.1 7.1 0 0 0-4.369-2.258l-.359-.041.287-.15c1.317-.687 2.142-1.917 2.26-3.371 1.13 1.244 2.724 2.068 4.37 2.257l.358.041-.287.15c-1.317.688-2.141 1.918-2.26 3.372"/><defs><linearGradient id="a" x1="95.471" x2="131.833" y1="242.156" y2="52.397" gradientUnits="userSpaceOnUse"><stop stop-color="#FEDF46"/><stop offset="1" stop-color="#FEDF46" stop-opacity="0"/></linearGradient><linearGradient id="b" x1="273.75" x2="184.958" y1="63.877" y2="279.321" gradientUnits="userSpaceOnUse"><stop stop-color="#FEDF46" stop-opacity="0"/><stop offset=".212" stop-color="#FEDF46"/><stop offset="1" stop-color="#FEDF46" stop-opacity="0"/></linearGradient><linearGradient id="c" x1="128.689" x2="133.9" y1="245.942" y2="204.257" gradientUnits="userSpaceOnUse"><stop stop-color="#FEDF46"/><stop offset="1" stop-color="#FEDF46" stop-opacity="0"/></linearGradient><linearGradient id="d" x1="111.119" x2="150.562" y1="241.813" y2="53.734" gradientUnits="userSpaceOnUse"><stop stop-color="#FEDF46"/><stop offset="1" stop-color="#FEDF46" stop-opacity="0"/></linearGradient><linearGradient id="e" x1="209.524" x2="193.533" y1="124.454" y2="142.063" gradientUnits="userSpaceOnUse"><stop stop-color="#FEDF46"/><stop offset="1" stop-color="#FEDF46" stop-opacity="0"/></linearGradient><linearGradient id="f" x1="145.415" x2="194.156" y1="241.813" y2="58.416" gradientUnits="userSpaceOnUse"><stop stop-color="#FEDF46"/><stop offset="1" stop-color="#FEDF46" stop-opacity="0"/></linearGradient><linearGradient id="h" x1="145.415" x2="194.156" y1="241.813" y2="58.416" gradientUnits="userSpaceOnUse"><stop stop-color="#FEDF46"/><stop offset="1" stop-color="#FEDF46" stop-opacity="0"/></linearGradient><linearGradient id="i" x1="76.822" x2="109.839" y1="241.813" y2="51.18" gradientUnits="userSpaceOnUse"><stop stop-color="#FEDF46"/><stop offset="1" stop-color="#FEDF46" stop-opacity="0"/></linearGradient><linearGradient id="j" x1="92.703" x2="85.041" y1="191.219" y2="230.525" gradientUnits="userSpaceOnUse"><stop stop-color="#FEDF46"/><stop offset="1" stop-color="#FEDF46" stop-opacity="0"/></linearGradient><linearGradient id="l" x1="66.865" x2="98.379" y1="241.813" y2="50.657" gradientUnits="userSpaceOnUse"><stop stop-color="#FEDF46"/><stop offset="1" stop-color="#FEDF46" stop-opacity="0"/></linearGradient><linearGradient id="m" x1="456.336" x2="417.384" y1="241.656" y2="52.97" gradientUnits="userSpaceOnUse"><stop stop-color="#18ADF2"/><stop offset="1" stop-color="#18ADF2" stop-opacity="0"/></linearGradient><linearGradient id="n" x1="290.855" x2="384.335" y1="63.377" y2="273.91" gradientUnits="userSpaceOnUse"><stop stop-color="#18ADF2" stop-opacity="0"/><stop offset=".212" stop-color="#18ADF2"/><stop offset="1" stop-color="#18ADF2" stop-opacity="0"/></linearGradient><linearGradient id="o" x1="425.501" x2="419.901" y1="245.442" y2="203.86" gradientUnits="userSpaceOnUse"><stop stop-color="#18ADF2"/><stop offset="1" stop-color="#18ADF2" stop-opacity="0"/></linearGradient><linearGradient id="p" x1="441.812" x2="399.603" y1="241.313" y2="54.499" gradientUnits="userSpaceOnUse"><stop stop-color="#18ADF2"/><stop offset="1" stop-color="#18ADF2" stop-opacity="0"/></linearGradient><linearGradient id="q" x1="350.469" x2="366.531" y1="123.954" y2="140.371" gradientUnits="userSpaceOnUse"><stop stop-color="#18ADF2"/><stop offset="1" stop-color="#18ADF2" stop-opacity="0"/></linearGradient><linearGradient id="r" x1="409.977" x2="358.018" y1="241.313" y2="59.839" gradientUnits="userSpaceOnUse"><stop stop-color="#18ADF2"/><stop offset="1" stop-color="#18ADF2" stop-opacity="0"/></linearGradient><linearGradient id="t" x1="409.977" x2="358.018" y1="241.313" y2="59.839" gradientUnits="userSpaceOnUse"><stop stop-color="#18ADF2"/><stop offset="1" stop-color="#18ADF2" stop-opacity="0"/></linearGradient><linearGradient id="u" x1="473.646" x2="438.241" y1="241.313" y2="51.568" gradientUnits="userSpaceOnUse"><stop stop-color="#18ADF2"/><stop offset="1" stop-color="#18ADF2" stop-opacity="0"/></linearGradient><linearGradient id="v" x1="458.904" x2="467.111" y1="190.719" y2="229.795" gradientUnits="userSpaceOnUse"><stop stop-color="#18ADF2"/><stop offset="1" stop-color="#18ADF2" stop-opacity="0"/></linearGradient><linearGradient id="x" x1="482.888" x2="449.081" y1="241.313" y2="50.967" gradientUnits="userSpaceOnUse"><stop stop-color="#18ADF2"/><stop offset="1" stop-color="#18ADF2" stop-opacity="0"/></linearGradient><filter id="g" width="261.345" height="301.028" x="78.801" y="1.339" color-interpolation-filters="sRGB" filterUnits="userSpaceOnUse"><feFlood flood-opacity="0" result="BackgroundImageFix"/><feBlend in="SourceGraphic" in2="BackgroundImageFix" result="shape"/><feGaussianBlur result="effect1_foregroundBlur_3936_17" stdDeviation="30"/></filter><filter id="k" width="339.807" height="301.822" x=".181" y=".675" color-interpolation-filters="sRGB" filterUnits="userSpaceOnUse"><feFlood flood-opacity="0" result="BackgroundImageFix"/><feBlend in="SourceGraphic" in2="BackgroundImageFix" result="shape"/><feGaussianBlur result="effect1_foregroundBlur_3936_17" stdDeviation="30"/></filter><filter id="s" width="252.137" height="300.932" x="224.446" y=".92" color-interpolation-filters="sRGB" filterUnits="userSpaceOnUse"><feFlood flood-opacity="0" result="BackgroundImageFix"/><feBlend in="SourceGraphic" in2="BackgroundImageFix" result="shape"/><feGaussianBlur result="effect1_foregroundBlur_3936_17" stdDeviation="30"/></filter><filter id="w" width="324.976" height="301.676" x="224.583" y=".296" color-interpolation-filters="sRGB" filterUnits="userSpaceOnUse"><feFlood flood-opacity="0" result="BackgroundImageFix"/><feBlend in="SourceGraphic" in2="BackgroundImageFix" result="shape"/><feGaussianBlur result="effect1_foregroundBlur_3936_17" stdDeviation="30"/></filter></defs></svg>